# xmcd
#
# Track frame offsets: 
#        150
#        13010
#        23946
#        42344
#        55208
#        69147
#        86691
#        94124
#        107793
#        116204
#        128375
#        136060
#        155802
#        171879
#        183546
#        194678
#        202264
#        215884
#        235047
#        246314
#        256833
#        272166
#        284911
#        302567
#
# Disc length: 4195 seconds
#
# Revision: 0
# Processed by: cddbd v1.5.2PL0 Copyright (c) Steve Scherf et al.
# Submitted via: ExactAudioCopy v0.99pb1
#
DISCID=6d106118
DTITLE=Various Artist - The George Mitchell Collection, Volumes 1-7 - Disc 3
DYEAR=2008
DGENRE=Blues
TTITLE0=Bud White - Go Ahead On
TTITLE1=Bud White - You've Been Gone So Long
TTITLE2=Bud White - White Horses
TTITLE3=George Henry Bussey - When I'm Sober I'm Drunk Blues
TTITLE4=George Henry Bussey - Mean Mistreater
TTITLE5=George Henry Bussey - Blues Around My Bed
TTITLE6=George Henry Bussey - Looking for My Woman
TTITLE7=Jim Bunkley - Old Red #2
TTITLE8=Jim Bunkley - Jack of Diamonds
TTITLE9=Jim Bunkley - Them Greasy Greens
TTITLE10=Jim Bunkley - Rocking Chair
TTITLE11=Tom Turner - Old Breakdown
TTITLE12=Tom Turner - Drop Down Mama #1
TTITLE13=James Shorter - Search Me Lord
TTITLE14=James Shorter - My MOther Dies and Left Me
TTITLE15=James Shorter - Consolation
TTITLE16=James Shorter - Home Going
TTITLE17=Abe McNeil - Better Than Myself
TTITLE18=Abe McNeil - Steady Rollin' Man
TTITLE19=Abe McNeil - Drink Drink Drink
TTITLE20=Joe Callicot - Country Blues
TTITLE21=Joe Callicot - River Blues
TTITLE22=Johnny Woods - 3 O'Clock in the Morning
TTITLE23=Johnny Woods - I's Be Troubled
EXTD=
EXTT0=
EXTT1=
EXTT2=
EXTT3=
EXTT4=
EXTT5=
EXTT6=
EXTT7=
EXTT8=
EXTT9=
EXTT10=
EXTT11=
EXTT12=
EXTT13=
EXTT14=
EXTT15=
EXTT16=
EXTT17=
EXTT18=
EXTT19=
EXTT20=
EXTT21=
EXTT22=
EXTT23=
PLAYORDER=
